<?xml version="1.0" standalone="no"?>
<!DOCTYPE svg PUBLIC "-//W3C//DTD SVG 20010904//EN"
 "http://www.w3.org/TR/2001/REC-SVG-20010904/DTD/svg10.dtd">
<svg version="1.0" xmlns="http://www.w3.org/2000/svg"
 width="1088.000000pt" height="1088.000000pt" viewBox="0 0 1088.000000 1088.000000"
 preserveAspectRatio="xMidYMid meet">
<metadata>
Created by potrace 1.11, written by Peter Selinger 2001-2013
</metadata>
<g transform="translate(0.000000,1088.000000) scale(0.100000,-0.100000)"
fill="#000000" stroke="none">
<path d="M5669 9756 c-2 -2 -49 -6 -104 -10 -55 -3 -111 -8 -125 -10 -14 -2
-54 -7 -90 -11 -36 -3 -92 -10 -125 -15 -33 -5 -78 -12 -100 -15 -22 -4 -51
-8 -65 -11 -14 -2 -46 -7 -72 -10 -27 -4 -48 -11 -48 -16 0 -5 3 -7 8 -5 8 5
60 13 157 22 33 3 78 8 100 10 96 10 282 18 430 18 155 1 463 -11 474 -17 3
-2 40 -7 81 -10 41 -3 98 -11 125 -16 28 -5 66 -11 85 -14 289 -42 640 -154
905 -289 304 -154 485 -305 628 -522 81 -122 164 -312 182 -417 3 -17 8 -34
10 -38 2 -3 7 -29 11 -56 3 -27 8 -52 11 -57 7 -11 5 -195 -2 -252 -40 -308
-191 -634 -431 -935 -96 -120 -320 -340 -444 -436 -99 -77 -297 -213 -330
-227 -8 -4 -37 -20 -65 -37 -133 -81 -452 -222 -615 -271 -190 -58 -365 -98
-490 -114 -30 -4 -64 -9 -75 -11 -94 -18 -478 -24 -610 -10 -123 13 -190 22
-290 41 -120 22 -116 21 -240 55 -183 48 -415 132 -605 217 -140 63 -160 65
-193 21 -24 -33 -33 -142 -16 -203 6 -21 12 -45 14 -54 15 -73 126 -308 176
-374 62 -81 192 -199 290 -263 204 -135 487 -240 744 -278 22 -4 54 -9 70 -11
17 -3 43 -7 58 -9 155 -25 605 -25 802 -1 17 2 55 6 85 10 73 8 90 11 255 41
77 14 152 28 166 30 15 3 93 23 175 45 82 22 156 41 164 43 61 16 355 119 417
147 23 11 45 19 48 19 9 0 49 18 234 107 392 188 710 409 976 678 150 150 312
355 381 480 6 11 21 38 34 60 106 183 199 439 225 620 4 28 10 59 12 70 8 36
10 337 2 379 -4 22 -10 61 -14 86 -32 233 -174 539 -351 758 -82 102 -261 278
-359 354 -16 12 -39 31 -50 41 -84 77 -385 250 -595 342 -169 74 -527 189
-680 219 -14 2 -70 14 -125 25 -55 10 -120 23 -145 26 -25 4 -52 9 -61 10 -9
2 -40 6 -70 10 -30 3 -65 8 -79 10 -14 2 -60 7 -103 10 -43 4 -88 9 -100 12
-25 5 -662 15 -668 9z"/>
<path d="M4898 9653 c6 -2 18 -2 25 0 6 3 1 5 -13 5 -14 0 -19 -2 -12 -5z"/>
<path d="M5328 9315 c-2 -2 -50 -6 -108 -9 -108 -8 -142 -11 -220 -22 -25 -3
-52 -6 -60 -6 -8 0 -35 -4 -60 -8 -25 -5 -65 -11 -90 -15 -224 -30 -581 -118
-870 -215 -766 -254 -1429 -637 -2058 -1189 -149 -130 -430 -403 -522 -506
-20 -22 -60 -67 -90 -100 -30 -33 -75 -85 -100 -114 -25 -30 -50 -59 -55 -65
-124 -132 -477 -627 -605 -851 -64 -111 -185 -356 -235 -475 -15 -36 -33 -78
-41 -95 -17 -38 -113 -287 -166 -428 -22 -60 -37 -111 -34 -115 3 -3 6 0 6 5
0 29 201 457 291 621 141 256 311 526 469 742 77 106 247 325 281 360 8 9 43
49 79 90 287 331 621 638 1005 922 88 65 165 121 170 126 25 19 247 163 310
201 39 23 77 47 85 52 234 145 678 345 1006 452 322 105 699 194 904 213 36 3
71 7 77 9 31 10 255 20 438 19 176 0 276 -5 380 -19 17 -2 50 -7 75 -10 25 -3
54 -7 65 -9 11 -2 40 -7 65 -11 359 -58 725 -221 935 -417 131 -122 196 -291
190 -498 -5 -207 -80 -410 -244 -660 -62 -96 -106 -152 -286 -369 -71 -86
-158 -167 -231 -217 -108 -73 -127 -98 -109 -140 33 -78 260 -118 451 -78 496
104 1002 526 1156 964 44 127 62 230 62 370 0 117 -8 193 -34 290 -11 41 -21
80 -23 85 -1 6 -5 15 -8 20 -4 6 -12 28 -19 50 -21 66 -131 269 -160 295 -3 3
-18 22 -33 43 -30 40 -141 154 -197 202 -113 96 -379 268 -451 290 -13 4 -29
11 -35 16 -12 10 -224 86 -259 94 -26 5 -49 11 -115 28 -93 25 -236 48 -410
67 -87 10 -564 22 -572 15z"/>
<path d="M5047 8764 c-1 -1 -38 -5 -82 -8 -44 -4 -91 -9 -105 -11 -14 -2 -47
-6 -75 -10 -474 -58 -1122 -280 -1605 -548 -99 -55 -114 -64 -185 -107 -187
-114 -357 -237 -540 -390 -64 -53 -344 -339 -411 -420 -259 -311 -483 -678
-605 -990 -17 -41 -36 -88 -43 -105 -35 -79 -112 -340 -141 -480 -15 -71 -35
-183 -41 -225 -3 -25 -7 -56 -10 -70 -23 -131 -23 -583 0 -720 3 -14 10 -59
16 -100 7 -41 14 -84 17 -95 5 -26 22 -104 28 -131 9 -38 86 -309 100 -350 60
-178 163 -398 267 -570 61 -102 200 -305 233 -340 5 -7 26 -31 45 -55 100
-125 260 -294 401 -425 37 -34 280 -237 314 -262 118 -87 267 -190 290 -202 5
-3 44 -27 85 -54 146 -96 500 -285 700 -374 293 -130 667 -265 938 -338 28 -8
78 -21 110 -30 67 -18 56 -15 197 -49 120 -29 374 -80 445 -90 25 -3 52 -8 60
-10 8 -2 35 -7 60 -10 25 -3 52 -8 60 -10 17 -4 95 -14 235 -30 28 -3 66 -7
85 -9 19 -3 64 -8 100 -11 36 -4 73 -9 83 -11 9 -3 17 -1 17 4 0 5 -6 9 -12
10 -44 3 -604 170 -865 258 -285 95 -598 234 -858 380 -313 175 -946 590
-1146 751 -187 151 -466 417 -578 552 -25 29 -50 59 -56 65 -19 19 -179 237
-232 316 -133 200 -274 462 -346 645 -73 184 -124 432 -143 685 -14 189 -3
520 21 668 3 17 8 49 11 69 48 377 209 784 467 1183 34 52 65 100 69 105 4 6
42 57 84 115 43 58 80 107 83 110 3 3 39 46 80 95 109 131 378 395 516 506
365 291 703 471 1098 585 67 19 137 37 157 40 19 3 54 10 78 15 23 5 59 12 80
15 20 3 48 7 62 10 144 24 561 24 725 -1 62 -10 178 -29 185 -30 3 -1 32 -7
65 -14 116 -25 246 -61 401 -111 87 -29 164 -48 175 -45 49 16 47 103 -4 199
-47 86 -115 164 -207 238 -130 104 -377 187 -635 214 -58 6 -313 12 -318 8z"/>
<path d="M4085 7993 c-68 -14 -216 -71 -308 -118 -216 -109 -390 -238 -577
-425 -147 -147 -158 -159 -241 -270 -177 -238 -285 -442 -355 -675 -76 -248
-92 -616 -39 -885 3 -14 8 -41 11 -60 12 -68 55 -246 74 -300 71 -209 204
-451 358 -650 59 -77 257 -282 323 -336 115 -94 312 -231 369 -257 8 -4 31
-17 50 -29 208 -126 670 -303 950 -363 8 -2 35 -8 60 -14 78 -17 301 -56 385
-65 28 -4 67 -8 88 -11 237 -27 869 -28 1057 0 14 2 52 6 85 10 33 3 87 10
120 15 33 5 80 12 105 15 40 5 91 14 185 31 32 5 340 72 365 79 8 2 60 16 115
30 260 69 653 204 870 300 535 235 867 423 1215 688 646 492 1132 1169 1354
1887 84 274 138 543 163 825 8 92 10 387 2 457 -9 83 -19 65 -20 -38 -1 -54
-3 -108 -4 -119 -1 -11 -6 -45 -10 -75 -36 -285 -150 -590 -317 -853 -58 -91
-183 -260 -238 -322 -154 -173 -292 -307 -435 -423 -38 -31 -72 -60 -75 -63
-15 -18 -265 -197 -390 -280 -462 -306 -898 -520 -1390 -682 -52 -17 -97 -31
-100 -32 -3 -1 -32 -9 -65 -19 -134 -40 -408 -108 -525 -130 -14 -3 -50 -10
-80 -16 -30 -6 -68 -13 -85 -15 -16 -3 -41 -7 -55 -10 -67 -13 -268 -42 -345
-51 -33 -3 -68 -8 -77 -9 -9 -2 -48 -7 -85 -10 -37 -4 -78 -8 -90 -10 -161
-25 -748 -26 -903 -1 -14 3 -52 7 -85 11 -33 3 -89 11 -125 16 -36 6 -78 13
-95 15 -16 3 -61 11 -100 19 -38 8 -81 16 -95 19 -93 16 -391 103 -540 158
-175 64 -438 192 -565 275 -187 123 -352 265 -450 388 -22 28 -42 52 -45 55
-3 3 -22 30 -42 61 -102 156 -132 263 -133 469 0 155 7 219 35 330 106 417
385 845 853 1311 102 102 108 116 59 139 -28 12 -131 21 -167 13z"/>
<path d="M5088 7855 c-1 -1 -23 -6 -47 -9 -143 -19 -352 -105 -467 -192 -169
-128 -265 -256 -303 -405 -83 -324 175 -571 589 -567 52 1 111 5 130 9 19 4
51 10 70 13 167 26 383 136 522 265 134 124 204 256 223 418 5 46 -17 140 -45
198 -87 176 -287 274 -562 274 -58 0 -108 -2 -110 -4z"/>
<path d="M9459 3855 c-21 -7 -79 -40 -130 -73 -52 -32 -107 -62 -123 -66 -36
-9 -87 -45 -178 -125 -57 -50 -62 -64 -34 -92 22 -22 70 -154 79 -219 10 -64
115 -82 204 -35 67 34 143 38 143 7 0 -40 -102 -114 -191 -138 -73 -20 -123
-49 -178 -102 -38 -37 -91 -108 -91 -123 0 -9 51 -26 102 -33 31 -5 53 2 130
42 143 73 297 172 349 223 70 69 140 235 131 311 -6 46 -58 70 -155 71 -75 0
-147 -7 -188 -19 -11 -3 -20 5 -29 25 -23 57 -18 62 118 112 26 9 40 25 64 72
46 93 57 128 45 155 -11 25 -18 26 -68 7z"/>
<path d="M8688 3425 c-2 -1 -28 -5 -58 -8 -77 -8 -196 -40 -271 -75 -188 -85
-360 -365 -305 -496 24 -58 142 -128 256 -151 96 -20 123 -23 184 -19 96 5
209 61 295 146 67 66 96 115 107 185 5 36 3 43 -16 53 -34 18 -61 6 -162 -73
-101 -80 -123 -89 -213 -88 -185 3 -272 73 -209 168 52 80 171 167 259 190 29
8 102 7 162 -1 62 -9 94 4 86 34 -3 11 -1 20 5 20 19 0 23 39 7 64 -15 23 -42
36 -102 49 -12 3 -23 4 -25 2z"/>
<path d="M7822 3220 c-114 -60 -132 -77 -143 -135 -5 -27 -23 -109 -40 -182
l-32 -132 -51 44 c-28 24 -77 70 -108 104 -80 84 -129 115 -170 107 -70 -13
-178 -77 -178 -105 0 -14 105 -138 240 -281 184 -194 197 -206 255 -230 75
-30 114 -30 134 0 34 49 73 126 78 150 20 113 70 330 104 450 23 79 42 151 44
160 2 8 6 27 10 42 5 20 2 29 -13 37 -32 17 -52 13 -130 -29z"/>
<path d="M6825 2986 c-51 -12 -127 -46 -155 -69 -9 -6 -24 -32 -33 -57 -9 -25
-50 -96 -91 -158 l-73 -113 -43 84 c-24 47 -59 109 -79 138 -30 46 -41 54 -69
56 -18 1 -51 4 -74 7 -34 5 -54 0 -105 -25 -35 -17 -70 -41 -77 -53 -8 -11
-37 -77 -66 -146 -74 -179 -85 -202 -157 -333 -35 -65 -63 -126 -61 -135 6
-30 79 -71 127 -72 38 0 48 5 78 37 30 33 90 139 87 153 -1 3 27 61 62 129
l63 124 39 -84 c42 -90 48 -108 56 -153 3 -16 9 -32 13 -36 8 -6 119 -52 155
-64 36 -11 63 22 258 322 40 61 76 112 79 112 9 0 73 -140 95 -207 42 -127
153 -205 218 -153 28 21 99 135 101 160 0 8 -25 69 -57 135 -32 66 -73 158
-92 205 -19 47 -41 97 -49 112 -8 14 -15 32 -15 40 0 46 -55 63 -135 44z"/>
</g>
</svg>
